<svg width="35" height="35" viewBox="0 0 35 35" fill="none" xmlns="http://www.w3.org/2000/svg">
<g clip-path="url(#clip0_17_2)">
<path d="M34.7149 9.70704C34.6146 9.56455 34.4816 9.44826 34.3269 9.36795C34.1723 9.28763 34.0006 9.24565 33.8263 9.24554H10.6137L8.85658 3.18617C8.16752 0.80015 6.53014 0.542572 5.85858 0.542572H1.1735C0.572997 0.542572 0.0873718 1.02874 0.0873718 1.62867C0.0873718 2.22859 0.573544 2.71473 1.17347 2.71473H5.858C6.0062 2.71473 6.45846 2.71473 6.76694 3.78058L12.8115 25.9952C12.9428 26.4639 13.3699 26.7876 13.8571 26.7876H28.6217C29.08 26.7876 29.489 26.5005 29.6438 26.069L34.8479 10.6991C34.9676 10.366 34.9179 9.99524 34.715 9.70704H34.7149ZM27.8573 24.616H14.6815L11.2242 11.4183H32.2821L27.8573 24.616ZM25.7032 28.9888C24.1928 28.9888 22.9689 30.2127 22.9689 31.7232C22.9689 33.2337 24.1928 34.4576 25.7032 34.4576C27.2137 34.4576 28.4376 33.2337 28.4376 31.7232C28.4376 30.2127 27.2137 28.9888 25.7032 28.9888ZM15.8595 28.9888C14.349 28.9888 13.1251 30.2127 13.1251 31.7232C13.1251 33.2337 14.349 34.4576 15.8595 34.4576C17.37 34.4576 18.5939 33.2337 18.5939 31.7232C18.5939 30.2127 17.37 28.9888 15.8595 28.9888Z" fill="black"/>
</g>
<defs>
<clipPath id="clip0_17_2">
<rect width="35" height="35" fill="white"/>
</clipPath>
</defs>
</svg>
